<?xml version="1.0" encoding="utf-8"?>
<!-- Generator: Adobe Illustrator 26.3.1, SVG Export Plug-In . SVG Version: 6.00 Build 0)  -->
<svg version="1.1" id="Layer_1" xmlns="http://www.w3.org/2000/svg" xmlns:xlink="http://www.w3.org/1999/xlink" x="0px" y="0px"
	 viewBox="0 0 512 512" style="enable-background:new 0 0 512 512;" xml:space="preserve">
<style type="text/css">
	.st0{fill:#4DB9BC;}
	.st1{fill:#FFB600;}
</style>
<path class="st0" d="M508.18,226.55c2.47,14.16,4.65,28.24,3.51,42.8c-7.53,96.17-53.61,168.12-138.69,212.62
	C222.88,560.49,38.67,471.3,4.97,305.28C-23.08,167.1,70.69,29.35,209.58,5.45c82.52-14.2,155.34,6.94,218.58,61.78
	c5.44,4.71,4.89,7.85,1.22,12.96c-17.5,24.42-52.5,35.69-84.58,27.11c-13-3.47-24.94-9.64-37.54-14.15
	c-89.58-32.07-199.6,23.78-220.42,128.82c-20,100.88,51.12,194.99,153.45,204.8c91.51,8.77,175.61-57.86,187.23-148.48
	c1.52-11.84,2.75-23.77-1.25-35.49c-4.73-13.83-13.94-19.41-28.04-16.83c13.5-15.34,29.92-26.21,49.92-30.68
	c16.71-3.74,42.78,0.3,54.8,21.96C504.67,220.35,504.68,224.46,508.18,226.55z"/>
<path class="st1" d="M508.18,226.55c-3.5-2.09-3.51-6.2-5.22-9.3c-12.02-21.66-38.09-25.7-54.8-21.96
	c-20.01,4.48-36.42,15.35-49.92,30.68c-10.21,6.94-18.05,16.34-25.95,25.55c-27.13,31.64-53.96,63.53-80.85,95.36
	c-9.23,10.93-18.52,21.82-27.36,33.06c-3.52,4.47-5.37,5.07-9.54,0.43c-38.76-43.16-77.79-86.09-116.74-129.09
	c-4.75-5.24-9.26-10.71-14.29-15.66c-3.71-3.65-3.38-5.73,0.74-8.92c32.32-25.07,79.15-22.76,108.39,5.89
	c7.3,7.15,13.96,14.98,20.55,22.8c2.81,3.33,4.17,3.3,6.96-0.08c15.86-19.14,31.88-38.15,48.04-57.04
	c11.75-13.73,24.39-26.59,39.25-37.05c61.4-43.19,135.46-18.19,157.97,53.33C506.63,218.46,508.35,222.3,508.18,226.55z"/>
</svg>
