<?xml version="1.0" encoding="utf-8"?>
<!-- Generator: Adobe Illustrator 26.3.1, SVG Export Plug-In . SVG Version: 6.00 Build 0)  -->
<svg version="1.1" id="Layer_1" xmlns="http://www.w3.org/2000/svg" xmlns:xlink="http://www.w3.org/1999/xlink" x="0px" y="0px"
	 viewBox="0 0 2153.64 512" style="enable-background:new 0 0 2153.64 512;" xml:space="preserve">
<style type="text/css">
	.st0{fill:#AF00D3;}
	.st1{fill:#FFAA00;}
	.st2{fill:#4DB9BC;}
	.st3{fill:#FFB600;}
	.st4{fill:#6B00D1;}
</style>
<g>
	<path class="st0" d="M5063.19-4083.8c6.78-18.09,17.99-31.65,33.63-40.69c15.63-9.04,33.06-13.56,52.28-13.56v45.94
		c0,17.56-12.22,32.95-29.44,36.4c-10.74,2.15-20.8,6.35-30.18,12.6c-17.52,11.68-26.28,31.09-26.28,58.21v89.89
		c0,24.95-20.23,45.18-45.18,45.18h-27.72v-282.58h72.91V-4083.8z"/>
	<path class="st0" d="M5766.72-4253.35h28.09v395.61h-39.56c-18.42,0-33.34-14.93-33.34-33.34l0,0
		c-21.48,27.51-51.99,41.26-91.56,41.26c-38.06,0-70.56-14.41-97.49-43.23c-26.94-28.82-40.41-64.15-40.41-105.97
		c0-41.82,13.47-77.14,40.41-105.97c26.93-28.82,59.43-43.23,97.49-43.23c39.56,0,70.08,13.76,91.56,41.26v-101.56
		C5721.9-4233.28,5741.96-4253.35,5766.72-4253.35z M5587.67-3941.67c14.88,14.89,33.63,22.32,56.23,22.32s41.26-7.43,55.95-22.32
		c14.69-14.88,22.04-34,22.04-57.36c0-23.36-7.35-42.47-22.04-57.36c-14.69-14.88-33.34-22.32-55.95-22.32s-41.35,7.44-56.23,22.32
		c-14.89,14.89-22.32,34.01-22.32,57.36C5565.35-3975.66,5572.79-3956.54,5587.67-3941.67z"/>
	<path class="st0" d="M5971.32-3849.83c-42.58,0-78.09-14.32-106.53-42.95c-28.45-28.63-42.67-64.05-42.67-106.25
		c0-42.19,14.22-77.61,42.67-106.25c28.44-28.63,63.95-42.95,106.53-42.95c27.5,0,52.56,6.6,75.17,19.78
		c22.61,13.19,39.75,30.9,51.43,53.12l-21.58,12.64c-19.79,11.59-44.52,11.12-63.62-1.57c-1.05-0.7-2.13-1.38-3.24-2.03
		c-11.5-6.78-24.4-10.17-38.71-10.17c-21.86,0-39.94,7.26-54.26,21.76c-14.32,14.51-21.48,33.06-21.48,55.67
		c0,22.24,7.15,40.6,21.48,55.1c14.31,14.51,32.4,21.76,54.26,21.76c14.69,0,27.78-3.29,39.28-9.89c1.28-0.73,2.52-1.5,3.72-2.29
		c18.98-12.52,43.54-12.81,63.28-1.53l22.01,12.58c-12.43,22.24-29.95,40.04-52.56,53.41
		C6023.88-3856.52,5998.82-3849.83,5971.32-3849.83z"/>
	<path class="st0" d="M6186.2-3969.08c9.79,35.42,36.36,53.13,79.69,53.13c14.21,0,26.65-2.44,37.34-7.34
		c21.65-9.91,46.73-8.94,67.35,2.96l17.38,10.03c-27.89,40.32-68.95,60.47-123.2,60.47c-46.72,0-84.21-14.13-112.47-42.39
		c-28.26-28.26-42.39-63.86-42.39-106.81c0-42.57,13.93-78.08,41.82-106.53c27.88-28.44,63.67-42.67,107.38-42.67
		c41.44,0,75.63,14.32,102.58,42.95c26.93,28.64,40.41,64.06,40.41,106.25c0,9.42-0.94,19.41-2.82,29.95H6186.2z M6185.07-4025.59
		h144.12c-4.15-19.22-12.72-33.53-25.71-42.95c-13-9.41-27.79-14.13-44.37-14.13c-19.59,0-35.8,5-48.6,14.98
		C6197.69-4057.71,6189.21-4043.68,6185.07-4025.59z"/>
	<path class="st0" d="M6427.76-3853.23v-376.81c0-19.74,16.01-35.75,35.75-35.75h37.15v375.11c0,20.68-16.77,37.45-37.45,37.45
		H6427.76z"/>
	<path class="st0" d="M6791.85-4138.63h39.56v282.58h-39.56c-18.42,0-33.34-14.93-33.34-33.34l0,0
		c-21.86,27.51-52.56,41.26-92.12,41.26c-37.68,0-69.99-14.41-96.92-43.23c-26.94-28.82-40.41-64.15-40.41-105.97
		c0-41.82,13.47-77.14,40.41-105.97c26.93-28.82,59.25-43.23,96.92-43.23c39.56,0,70.27,13.76,92.12,41.26v0
		C6758.51-4123.71,6773.44-4138.63,6791.85-4138.63z M6624-3939.98c14.69,14.89,33.34,22.32,55.95,22.32s41.35-7.43,56.23-22.32
		c14.88-14.88,22.33-34,22.33-57.36c0-23.36-7.45-42.47-22.33-57.36c-14.89-14.88-33.63-22.32-56.23-22.32s-41.26,7.44-55.95,22.32
		c-14.69,14.89-22.04,34.01-22.04,57.36C6601.96-3973.98,6609.31-3954.86,6624-3939.98z"/>
	<path class="st0" d="M5418.83-4135.81h39.56v282.58h-39.56c-18.42,0-33.34-14.93-33.34-33.34l0,0
		c-21.86,27.51-52.56,41.26-92.12,41.26c-37.68,0-69.99-14.41-96.92-43.23c-26.94-28.82-40.41-64.15-40.41-105.97
		c0-41.82,13.47-77.14,40.41-105.97c26.93-28.82,59.25-43.23,96.92-43.23c39.56,0,70.27,13.76,92.12,41.26l0,0
		C5385.48-4120.88,5400.41-4135.81,5418.83-4135.81z M5250.97-3937.15c14.69,14.89,33.34,22.32,55.95,22.32s41.35-7.43,56.23-22.32
		c14.88-14.88,22.32-34,22.32-57.36c0-23.36-7.45-42.47-22.32-57.36c-14.89-14.88-33.63-22.32-56.23-22.32s-41.26,7.44-55.95,22.32
		c-14.69,14.89-22.04,34.01-22.04,57.36C5228.93-3971.15,5236.28-3952.03,5250.97-3937.15z"/>
	<path class="st0" d="M4947.42-4046.5c2.75,15.76,5.18,31.43,3.91,47.64c-8.38,107.05-59.67,187.12-154.38,236.66
		c-167.08,87.4-372.13-11.88-409.64-196.67c-31.22-153.81,73.16-307.13,227.75-333.73c91.85-15.8,172.9,7.72,243.3,68.76
		c6.05,5.25,5.44,8.73,1.36,14.43c-19.48,27.18-58.43,39.72-94.15,30.18c-14.47-3.87-27.76-10.73-41.78-15.75
		c-99.7-35.69-222.17,26.47-245.34,143.38c-22.26,112.29,56.9,217.04,170.8,227.95c101.85,9.76,195.47-64.41,208.4-165.27
		c1.69-13.18,3.07-26.46-1.39-39.5c-5.26-15.4-15.52-21.61-31.22-18.73c15.03-17.07,33.3-29.17,55.57-34.15
		c18.6-4.16,47.62,0.34,61,24.44C4943.52-4053.41,4943.53-4048.83,4947.42-4046.5z"/>
	<path class="st1" d="M4947.42-4046.5c-3.89-2.33-3.9-6.9-5.82-10.35c-13.38-24.11-42.4-28.61-61-24.44
		c-22.27,4.98-40.54,17.08-55.57,34.15c-11.36,7.72-20.1,18.19-28.88,28.43c-30.19,35.21-60.06,70.71-89.99,106.14
		c-10.28,12.16-20.61,24.29-30.46,36.8c-3.91,4.97-5.98,5.64-10.62,0.48c-43.15-48.04-86.58-95.82-129.94-143.68
		c-5.28-5.83-10.31-11.92-15.91-17.43c-4.13-4.07-3.76-6.38,0.82-9.93c35.98-27.91,88.1-25.33,120.65,6.56
		c8.12,7.96,15.53,16.68,22.88,25.38c3.13,3.71,4.64,3.67,7.75-0.09c17.66-21.3,35.49-42.46,53.47-63.49
		c13.08-15.29,27.15-29.6,43.69-41.24c68.34-48.07,150.78-20.25,175.83,59.36C4945.7-4055.51,4947.61-4051.23,4947.42-4046.5z"/>
</g>
<g>
	<path class="st2" d="M599.07,194.39c5.96-15.9,15.81-27.83,29.56-35.78c13.74-7.95,29.07-11.93,45.96-11.93v40.39
		c0,15.44-10.75,28.97-25.88,32c-9.44,1.89-18.28,5.58-26.53,11.08c-15.4,10.27-23.1,27.33-23.1,51.18v79.03
		c0,21.94-17.79,39.72-39.72,39.72h-24.37V151.66h64.1V194.39z"/>
	<path class="st2" d="M1217.59,45.33h24.69v347.81h-34.78c-16.19,0-29.31-13.12-29.31-29.31v0c-18.88,24.18-45.71,36.27-80.49,36.27
		c-33.46,0-62.03-12.67-85.71-38.01c-23.69-25.34-35.53-56.4-35.53-93.16c0-36.77,11.84-67.82,35.53-93.16
		c23.68-25.34,52.25-38.01,85.71-38.01c34.78,0,61.61,12.1,80.49,36.27V84.73C1178.19,62.97,1195.83,45.33,1217.59,45.33z
		 M1060.18,319.35c13.08,13.09,29.56,19.63,49.44,19.63c19.88,0,36.27-6.54,49.19-19.63c12.92-13.08,19.38-29.89,19.38-50.43
		c0-20.53-6.46-37.34-19.38-50.43c-12.92-13.08-29.31-19.63-49.19-19.63c-19.88,0-36.36,6.54-49.44,19.63
		c-13.09,13.09-19.63,29.9-19.63,50.43C1040.55,289.46,1047.09,306.27,1060.18,319.35z"/>
	<path class="st2" d="M1397.47,400.09c-37.44,0-68.65-12.59-93.66-37.76c-25.01-25.17-37.51-56.31-37.51-93.41
		c0-37.09,12.5-68.23,37.51-93.41c25.01-25.17,56.22-37.76,93.66-37.76c24.18,0,46.21,5.8,66.08,17.39
		c19.88,11.6,34.94,27.17,45.22,46.71l-18.98,11.11c-17.4,10.19-39.14,9.77-55.94-1.38c-0.93-0.61-1.88-1.21-2.85-1.78
		c-10.11-5.96-21.45-8.94-34.03-8.94c-19.22,0-35.11,6.38-47.7,19.13c-12.59,12.76-18.88,29.07-18.88,48.94
		c0,19.55,6.29,35.7,18.88,48.45c12.59,12.76,28.49,19.13,47.7,19.13c12.92,0,24.42-2.9,34.53-8.69c1.12-0.64,2.21-1.31,3.27-2.01
		c16.68-11.01,38.28-11.26,55.63-1.34l19.35,11.06c-10.93,19.55-26.33,35.2-46.21,46.95
		C1443.68,394.21,1421.65,400.09,1397.47,400.09z"/>
	<path class="st2" d="M1586.39,295.25c8.61,31.14,31.96,46.71,70.06,46.71c12.49,0,23.43-2.15,32.83-6.45
		c19.04-8.72,41.08-7.86,59.22,2.6l15.28,8.82c-24.52,35.45-60.62,53.17-108.32,53.17c-41.08,0-74.03-12.42-98.88-37.27
		c-24.84-24.84-37.26-56.15-37.26-93.91c0-37.43,12.25-68.65,36.77-93.66c24.51-25.01,55.98-37.51,94.4-37.51
		c36.44,0,66.5,12.59,90.18,37.76c23.68,25.18,35.53,56.32,35.53,93.41c0,8.28-0.83,17.07-2.48,26.33H1586.39z M1585.39,245.57
		h126.7c-3.65-16.89-11.18-29.48-22.61-37.76c-11.43-8.28-24.43-12.42-39.01-12.42c-17.23,0-31.47,4.39-42.73,13.17
		C1596.49,217.33,1589.04,229.67,1585.39,245.57z"/>
	<path class="st2" d="M1798.76,397.1V65.82c0-17.36,14.07-31.43,31.43-31.43h32.67v329.79c0,18.18-14.74,32.93-32.93,32.93H1798.76z
		"/>
	<path class="st2" d="M2118.86,146.18h34.78v248.44h-34.78c-16.19,0-29.31-13.12-29.31-29.31v0
		c-19.22,24.18-46.21,36.27-80.99,36.27c-33.13,0-61.53-12.67-85.21-38.01c-23.69-25.34-35.53-56.4-35.53-93.16
		c0-36.77,11.84-67.82,35.53-93.16c23.68-25.34,52.09-38.01,85.21-38.01c34.78,0,61.78,12.1,80.99,36.27v0
		C2089.54,159.31,2102.67,146.18,2118.86,146.18z M1971.29,320.83c12.92,13.09,29.31,19.63,49.19,19.63
		c19.88,0,36.35-6.54,49.44-19.63c13.08-13.08,19.63-29.89,19.63-50.43c0-20.53-6.55-37.34-19.63-50.43
		c-13.09-13.08-29.56-19.63-49.44-19.63c-19.88,0-36.27,6.54-49.19,19.63c-12.92,13.09-19.38,29.9-19.38,50.43
		C1951.91,290.94,1958.37,307.75,1971.29,320.83z"/>
	<path class="st2" d="M911.73,148.67h34.78V397.1h-34.78c-16.19,0-29.31-13.12-29.31-29.31v0c-19.22,24.18-46.21,36.27-80.99,36.27
		c-33.13,0-61.53-12.67-85.21-38.01c-23.69-25.34-35.53-56.4-35.53-93.16c0-36.77,11.84-67.82,35.53-93.16
		c23.68-25.34,52.09-38.01,85.21-38.01c34.78,0,61.78,12.1,80.99,36.27v0C882.42,161.79,895.54,148.67,911.73,148.67z
		 M764.16,323.32c12.92,13.09,29.31,19.63,49.19,19.63s36.35-6.54,49.44-19.63c13.08-13.08,19.63-29.89,19.63-50.43
		c0-20.53-6.55-37.34-19.63-50.43c-13.09-13.08-29.56-19.63-49.44-19.63s-36.27,6.54-49.19,19.63
		c-12.92,13.09-19.38,29.9-19.38,50.43C744.79,293.43,751.25,310.23,764.16,323.32z"/>
	<path class="st2" d="M497.29,227.18c2.42,13.85,4.55,27.63,3.44,41.88c-7.37,94.11-52.46,164.51-135.72,208.07
		C218.11,553.97,37.84,466.69,4.86,304.23C-22.59,169,69.18,34.21,205.09,10.82c80.75-13.89,152.01,6.79,213.9,60.45
		c5.32,4.61,4.78,7.68,1.19,12.69c-17.12,23.9-51.37,34.92-82.77,26.53c-12.72-3.4-24.41-9.43-36.73-13.84
		c-87.66-31.38-195.32,23.27-215.7,126.06c-19.57,98.72,50.02,190.81,150.16,200.41c89.55,8.58,171.85-56.62,183.22-145.3
		c1.49-11.58,2.7-23.26-1.22-34.73c-4.62-13.54-13.64-19-27.44-16.47c13.22-15.01,29.28-25.65,48.86-30.03
		c16.35-3.66,41.86,0.29,53.63,21.49C493.86,221.11,493.87,225.14,497.29,227.18z"/>
	<path class="st3" d="M497.29,227.18c-3.42-2.04-3.43-6.07-5.11-9.1c-11.76-21.2-37.27-25.15-53.63-21.49
		c-19.58,4.38-35.64,15.02-48.86,30.03c-9.99,6.79-17.67,15.99-25.39,25c-26.54,30.96-52.8,62.16-79.12,93.32
		c-9.03,10.69-18.12,21.36-26.78,32.35c-3.44,4.37-5.26,4.96-9.33,0.42c-37.93-42.24-76.12-84.25-114.24-126.32
		c-4.64-5.13-9.06-10.48-13.99-15.33c-3.63-3.58-3.31-5.61,0.72-8.73c31.63-24.53,77.45-22.27,106.07,5.77
		c7.14,7,13.66,14.66,20.11,22.31c2.75,3.26,4.08,3.23,6.81-0.08c15.52-18.73,31.2-37.33,47.01-55.82
		c11.5-13.44,23.87-26.02,38.41-36.25c60.09-42.26,132.56-17.8,154.59,52.19C495.78,219.27,497.46,223.02,497.29,227.18z"/>
</g>
<g>
	<path class="st0" d="M10389.69-4078.2c7.52-20.05,19.94-35.08,37.27-45.11c17.33-10.02,36.65-15.04,57.95-15.04v50.93
		c0,19.46-13.55,36.53-32.64,40.35c-11.9,2.38-23.05,7.04-33.46,13.97c-19.42,12.95-29.13,34.46-29.13,64.53v99.64
		c0,27.66-22.42,50.08-50.08,50.08h-30.73v-313.23h80.81V-4078.2z"/>
	<path class="st0" d="M11169.52-4266.13h31.13v438.52h-43.85c-20.41,0-36.96-16.55-36.96-36.96l0,0
		c-23.81,30.49-57.63,45.73-101.49,45.73c-42.19,0-78.21-15.98-108.06-47.92c-29.86-31.95-44.79-71.1-44.79-117.46
		c0-46.36,14.93-85.51,44.79-117.46c29.85-31.95,65.87-47.92,108.06-47.92c43.85,0,77.68,15.25,101.49,45.73v-112.57
		C11119.84-4243.89,11142.09-4266.13,11169.52-4266.13z M10971.06-3920.64c16.49,16.5,37.27,24.74,62.33,24.74
		c25.06,0,45.73-8.24,62.02-24.74c16.29-16.49,24.43-37.68,24.43-63.59c0-25.89-8.14-47.08-24.43-63.58
		c-16.29-16.49-36.96-24.74-62.02-24.74c-25.06,0-45.84,8.25-62.33,24.74c-16.5,16.5-24.75,37.7-24.75,63.58
		C10946.32-3958.33,10954.56-3937.14,10971.06-3920.64z"/>
	<path class="st0" d="M11396.32-3818.84c-47.2,0-86.56-15.87-118.09-47.61c-31.54-31.73-47.3-70.99-47.3-117.77
		c0-46.77,15.76-86.03,47.3-117.77c31.53-31.73,70.89-47.61,118.09-47.61c30.48,0,58.26,7.31,83.32,21.93
		c25.06,14.62,44.06,34.25,57.01,58.89l-23.92,14.01c-21.94,12.85-49.35,12.32-70.52-1.74c-1.17-0.78-2.37-1.53-3.59-2.25
		c-12.74-7.52-27.04-11.28-42.91-11.28c-24.23,0-44.27,8.05-60.14,24.12c-15.88,16.08-23.8,36.65-23.8,61.7
		c0,24.65,7.93,45.01,23.8,61.08c15.87,16.08,35.91,24.12,60.14,24.12c16.29,0,30.79-3.65,43.54-10.96
		c1.42-0.81,2.79-1.66,4.12-2.54c21.04-13.88,48.26-14.2,70.14-1.69l24.4,13.94c-13.78,24.65-33.2,44.38-58.26,59.2
		C11454.58-3826.26,11426.8-3818.84,11396.32-3818.84z"/>
	<path class="st0" d="M11634.5-3951.03c10.86,39.26,40.3,58.89,88.33,58.89c15.75,0,29.54-2.71,41.39-8.13
		c24-10.99,51.79-9.91,74.66,3.28l19.27,11.12c-30.91,44.69-76.43,67.03-136.57,67.03c-51.79,0-93.34-15.66-124.67-46.98
		c-31.32-31.32-46.98-70.79-46.98-118.4c0-47.19,15.45-86.55,46.36-118.09c30.9-31.53,70.57-47.3,119.02-47.3
		c45.94,0,83.84,15.88,113.7,47.61c29.85,31.74,44.79,71.01,44.79,117.77c0,10.45-1.05,21.52-3.13,33.2H11634.5z M11633.25-4013.67
		H11793c-4.6-21.3-14.09-37.17-28.5-47.61c-14.41-10.43-30.8-15.66-49.18-15.66c-21.72,0-39.68,5.54-53.88,16.6
		C11647.24-4049.27,11637.84-4033.72,11633.25-4013.67z"/>
	<path class="st0" d="M11902.26-3822.61v-417.68c0-21.89,17.74-39.63,39.63-39.63h41.18v415.8c0,22.93-18.59,41.51-41.51,41.51
		H11902.26z"/>
	<path class="st0" d="M12305.84-4138.97h43.85v313.23h-43.85c-20.41,0-36.96-16.55-36.96-36.96l0,0
		c-24.23,30.49-58.26,45.73-102.11,45.73c-41.77,0-77.58-15.98-107.44-47.92c-29.86-31.95-44.79-71.1-44.79-117.46
		c0-46.36,14.93-85.51,44.79-117.46c29.85-31.95,65.67-47.92,107.44-47.92c43.85,0,77.89,15.25,102.11,45.73l0,0
		C12268.88-4122.43,12285.43-4138.97,12305.84-4138.97z M12119.79-3918.78c16.29,16.5,36.96,24.74,62.02,24.74
		s45.83-8.24,62.33-24.74c16.49-16.49,24.75-37.68,24.75-63.59c0-25.89-8.25-47.08-24.75-63.58c-16.5-16.49-37.27-24.74-62.33-24.74
		s-45.73,8.25-62.02,24.74c-16.29,16.5-24.43,37.7-24.43,63.58C12095.35-3956.46,12103.5-3935.27,12119.79-3918.78z"/>
	<path class="st0" d="M10783.9-4135.84h43.85v313.23h-43.85c-20.41,0-36.96-16.55-36.96-36.96l0,0
		c-24.23,30.49-58.26,45.73-102.11,45.73c-41.77,0-77.58-15.98-107.44-47.92c-29.86-31.95-44.79-71.1-44.79-117.46
		c0-46.36,14.93-85.51,44.79-117.46c29.85-31.95,65.67-47.92,107.44-47.92c43.85,0,77.89,15.25,102.11,45.73l0,0
		C10746.94-4119.29,10763.49-4135.84,10783.9-4135.84z M10597.84-3915.64c16.29,16.5,36.96,24.74,62.02,24.74
		c25.06,0,45.83-8.24,62.33-24.74c16.49-16.49,24.75-37.68,24.75-63.59c0-25.89-8.25-47.08-24.75-63.58
		c-16.5-16.49-37.27-24.74-62.33-24.74c-25.06,0-45.73,8.25-62.02,24.74c-16.29,16.5-24.43,37.7-24.43,63.58
		C10573.41-3953.33,10581.56-3932.14,10597.84-3915.64z"/>
	<path class="st0" d="M10261.37-4036.85c3.05,17.47,5.74,34.84,4.33,52.81c-9.29,118.66-66.14,207.42-171.12,262.33
		c-185.2,96.88-412.49-13.17-454.07-218c-34.61-170.49,81.09-340.44,252.45-369.92c101.81-17.52,191.66,8.56,269.69,76.22
		c6.71,5.81,6.03,9.68,1.5,16c-21.59,30.13-64.77,44.03-104.36,33.45c-16.04-4.29-30.77-11.89-46.31-17.45
		c-110.52-39.57-246.26,29.34-271.95,158.93c-24.67,124.47,63.07,240.57,189.32,252.68c112.9,10.82,216.67-71.39,231-183.2
		c1.87-14.6,3.4-29.33-1.54-43.79c-5.83-17.07-17.2-23.95-34.6-20.77c16.66-18.92,36.91-32.33,61.6-37.86
		c20.62-4.61,52.78,0.37,67.61,27.1C10257.04-4044.5,10257.05-4039.43,10261.37-4036.85z"/>
	<path class="st2" d="M10261.37-4036.85c-4.32-2.58-4.33-7.65-6.45-11.47c-14.83-26.72-46.99-31.71-67.61-27.1
		c-24.68,5.52-44.93,18.93-61.6,37.86c-12.59,8.56-22.28,20.16-32.02,31.52c-33.47,39.03-66.57,78.38-99.75,117.66
		c-11.39,13.48-22.85,26.92-33.76,40.79c-4.34,5.51-6.63,6.25-11.77,0.53c-47.83-53.25-95.97-106.22-144.03-159.27
		c-5.86-6.46-11.43-13.21-17.63-19.32c-4.58-4.51-4.17-7.07,0.91-11.01c39.88-30.93,97.65-28.08,133.73,7.27
		c9,8.82,17.22,18.49,25.36,28.13c3.47,4.11,5.14,4.07,8.59-0.1c19.57-23.61,39.34-47.07,59.27-70.37
		c14.5-16.95,30.09-32.81,48.43-45.71c75.76-53.28,167.13-22.44,194.9,65.8C10259.46-4046.83,10261.58-4042.1,10261.37-4036.85z"/>
</g>
<g>
	<rect x="-1240.87" y="-3066.88" class="st2" width="1292.63" height="924.4"/>
	<rect x="324" y="-3066.88" class="st3" width="1292.63" height="924.4"/>
</g>
<g>
	<rect x="4177.85" y="-3066.88" class="st0" width="1292.63" height="924.4"/>
	<rect x="5742.72" y="-3066.88" class="st3" width="1292.63" height="924.4"/>
</g>
<g>
	<path class="st4" d="M5103.71-414.48c6.78-18.09,17.99-31.65,33.63-40.69c15.63-9.04,33.06-13.56,52.28-13.56v45.94
		c0,17.56-12.22,32.95-29.44,36.4c-10.74,2.15-20.8,6.35-30.18,12.6c-17.52,11.68-26.28,31.09-26.28,58.21v89.89
		c0,24.95-20.23,45.18-45.18,45.18h-27.72v-282.58h72.91V-414.48z"/>
	<path class="st4" d="M5807.24-584.03h28.09v395.61h-39.56c-18.42,0-33.34-14.93-33.34-33.34v0
		c-21.48,27.51-51.99,41.26-91.56,41.26c-38.06,0-70.56-14.41-97.49-43.23c-26.94-28.82-40.41-64.15-40.41-105.97
		c0-41.82,13.47-77.14,40.41-105.97c26.93-28.82,59.43-43.23,97.49-43.23c39.56,0,70.08,13.76,91.56,41.26v-101.56
		C5762.42-563.96,5782.49-584.03,5807.24-584.03z M5628.2-272.34c14.88,14.89,33.63,22.32,56.23,22.32s41.26-7.43,55.95-22.32
		c14.69-14.88,22.04-34,22.04-57.36c0-23.36-7.35-42.47-22.04-57.36c-14.69-14.88-33.34-22.32-55.95-22.32s-41.35,7.44-56.23,22.32
		c-14.89,14.89-22.32,34.01-22.32,57.36C5605.87-306.34,5613.31-287.22,5628.2-272.34z"/>
	<path class="st4" d="M6011.84-180.5c-42.58,0-78.09-14.32-106.53-42.95c-28.45-28.63-42.67-64.05-42.67-106.25
		c0-42.19,14.22-77.61,42.67-106.25c28.44-28.63,63.95-42.95,106.53-42.95c27.5,0,52.56,6.6,75.17,19.78
		c22.61,13.19,39.75,30.9,51.43,53.12l-21.58,12.64c-19.79,11.59-44.52,11.12-63.62-1.57c-1.05-0.7-2.13-1.38-3.24-2.03
		c-11.5-6.78-24.4-10.17-38.71-10.17c-21.86,0-39.94,7.26-54.26,21.76c-14.32,14.51-21.48,33.06-21.48,55.67
		c0,22.24,7.15,40.6,21.48,55.1c14.32,14.51,32.4,21.76,54.26,21.76c14.69,0,27.78-3.29,39.28-9.89c1.28-0.73,2.52-1.5,3.72-2.29
		c18.98-12.52,43.54-12.81,63.28-1.53l22.01,12.58c-12.43,22.24-29.95,40.04-52.56,53.41C6064.4-187.2,6039.34-180.5,6011.84-180.5z
		"/>
	<path class="st4" d="M6226.73-299.75c9.79,35.42,36.36,53.13,79.69,53.13c14.21,0,26.65-2.44,37.34-7.34
		c21.65-9.91,46.72-8.94,67.35,2.96l17.38,10.03c-27.89,40.32-68.95,60.47-123.2,60.47c-46.72,0-84.21-14.13-112.47-42.39
		c-28.26-28.26-42.39-63.86-42.39-106.82c0-42.57,13.93-78.08,41.82-106.53c27.88-28.44,63.67-42.67,107.38-42.67
		c41.44,0,75.63,14.32,102.58,42.95c26.93,28.64,40.41,64.06,40.41,106.25c0,9.42-0.94,19.41-2.82,29.95H6226.73z M6225.6-356.27
		h144.11c-4.15-19.21-12.71-33.53-25.71-42.95c-13-9.41-27.79-14.13-44.37-14.13c-19.59,0-35.8,5-48.6,14.98
		C6238.22-388.38,6229.74-374.35,6225.6-356.27z"/>
	<path class="st4" d="M6468.28-183.9v-376.81c0-19.74,16.01-35.75,35.75-35.75h37.15v375.11c0,20.68-16.77,37.45-37.45,37.45
		H6468.28z"/>
	<path class="st4" d="M6832.38-469.31h39.56v282.58h-39.56c-18.42,0-33.34-14.93-33.34-33.34v0
		c-21.86,27.51-52.56,41.26-92.12,41.26c-37.68,0-69.99-14.41-96.92-43.23c-26.94-28.82-40.41-64.15-40.41-105.97
		c0-41.82,13.47-77.14,40.41-105.97c26.93-28.82,59.25-43.23,96.92-43.23c39.56,0,70.27,13.76,92.12,41.26v0
		C6799.03-454.38,6813.96-469.31,6832.38-469.31z M6664.53-270.66c14.69,14.89,33.34,22.32,55.95,22.32s41.35-7.43,56.23-22.32
		c14.88-14.88,22.32-34,22.32-57.36c0-23.36-7.45-42.47-22.32-57.36c-14.89-14.88-33.63-22.32-56.23-22.32s-41.26,7.44-55.95,22.32
		c-14.69,14.89-22.04,34.01-22.04,57.36C6642.48-304.65,6649.83-285.54,6664.53-270.66z"/>
	<path class="st4" d="M5459.35-466.48h39.56v282.58h-39.56c-18.42,0-33.34-14.93-33.34-33.34v0
		c-21.86,27.51-52.56,41.26-92.12,41.26c-37.68,0-69.99-14.41-96.92-43.23c-26.94-28.82-40.41-64.15-40.41-105.97
		c0-41.82,13.47-77.14,40.41-105.97c26.93-28.82,59.25-43.23,96.92-43.23c39.56,0,70.27,13.76,92.12,41.26v0
		C5426.01-451.56,5440.93-466.48,5459.35-466.48z M5291.5-267.83c14.69,14.89,33.34,22.32,55.95,22.32s41.35-7.43,56.23-22.32
		c14.88-14.88,22.32-34,22.32-57.36c0-23.36-7.45-42.47-22.32-57.36c-14.89-14.88-33.63-22.32-56.23-22.32s-41.26,7.44-55.95,22.32
		c-14.69,14.89-22.04,34.01-22.04,57.36C5269.46-301.83,5276.8-282.71,5291.5-267.83z"/>
	<path class="st4" d="M4987.94-377.18c2.75,15.76,5.18,31.43,3.91,47.64c-8.38,107.05-59.67,187.12-154.38,236.66
		c-167.08,87.4-372.13-11.88-409.64-196.67c-31.22-153.81,73.16-307.13,227.75-333.73c91.85-15.8,172.9,7.72,243.3,68.76
		c6.05,5.25,5.44,8.73,1.36,14.43c-19.48,27.18-58.43,39.72-94.15,30.18c-14.47-3.87-27.76-10.73-41.78-15.75
		c-99.7-35.69-222.17,26.47-245.34,143.38c-22.26,112.29,56.9,217.04,170.8,227.95c101.85,9.76,195.47-64.41,208.4-165.27
		c1.69-13.18,3.07-26.46-1.39-39.5c-5.26-15.4-15.52-21.61-31.22-18.73c15.03-17.07,33.3-29.17,55.57-34.15
		c18.6-4.16,47.62,0.34,61,24.44C4984.04-384.08,4984.05-379.51,4987.94-377.18z"/>
</g>
<path class="st1" d="M4987.94-377.18c-3.89-2.33-3.9-6.9-5.82-10.35c-13.38-24.11-42.4-28.61-61-24.44
	c-22.27,4.98-40.54,17.08-55.57,34.15c-11.36,7.72-20.1,18.19-28.88,28.43c-30.19,35.21-60.06,70.71-89.99,106.14
	c-10.28,12.16-20.61,24.29-30.46,36.8c-3.91,4.97-5.98,5.64-10.62,0.48c-43.15-48.04-86.58-95.82-129.94-143.68
	c-5.28-5.83-10.31-11.92-15.91-17.43c-4.13-4.07-3.76-6.38,0.82-9.93c35.98-27.9,88.1-25.33,120.65,6.56
	c8.12,7.96,15.53,16.68,22.88,25.38c3.13,3.71,4.64,3.67,7.75-0.09c17.66-21.3,35.49-42.46,53.47-63.49
	c13.08-15.29,27.15-29.6,43.69-41.24c68.34-48.07,150.78-20.25,175.83,59.36C4986.23-386.18,4988.14-381.91,4987.94-377.18z"/>
<rect x="4218.38" y="602.45" class="st4" width="1292.63" height="924.4"/>
<rect x="5783.25" y="602.45" class="st3" width="1292.63" height="924.4"/>
<rect x="9563.29" y="-3066.88" class="st0" width="1292.63" height="924.4"/>
<rect x="11128.16" y="-3066.88" class="st2" width="1292.63" height="924.4"/>
</svg>
